<?xml version="1.0" encoding="UTF-8" standalone="no"?><!DOCTYPE svg PUBLIC "-//W3C//DTD SVG 1.1//EN" "http://www.w3.org/Graphics/SVG/1.1/DTD/svg11.dtd"><svg width="100%" height="100%" viewBox="0 0 1759 2884" version="1.1" xmlns="http://www.w3.org/2000/svg" xmlns:xlink="http://www.w3.org/1999/xlink" xml:space="preserve" xmlns:serif="http://www.serif.com/" style="fill-rule:evenodd;clip-rule:evenodd;stroke-linejoin:round;stroke-miterlimit:2;"><g id="Background"><path d="M1278.76,2381.139c1.511,27.443 0.738,27.124 1.384,54.334c0.649,27.303 88.958,121.26 140.465,194.385c52.61,74.691 -78.886,-11.947 -93.251,-19.921c-17.112,-9.499 -18.181,-0.32 -37.949,-2.011c-29.362,-2.511 -1.227,20.647 -22.198,85.169c-7.006,21.554 -23.362,-23.285 -23.982,-23.641c-28.87,-16.543 35.174,66.884 -3.448,60.185c-62.826,-10.897 -78.018,-80.74 -87.87,-65.219c-19.385,30.541 -26.734,-13.042 -37.874,-19.422c-12.211,-6.993 -7.778,30.59 -24.995,20.7c-32.176,-18.482 -42.218,-52.548 -48.274,-21.666c-14.696,74.934 -56.747,187.637 -79.886,200.432c-61.106,33.789 -33.491,-54.257 -47.941,-254.7c-0.384,-5.331 -2.573,-35.695 -60.708,-27.883c-60.688,8.155 -62.284,20.527 -64.89,81.954c-5.683,133.92 14.441,195.352 -10.805,206.828c-40.712,18.506 -97.721,-106.239 -111.436,-202.913c-3.07,-21.64 -18.462,14.127 -34.625,32.851c-16.39,18.986 -29.604,13.172 -28.5,-11.846c2.901,-65.701 -29.937,44.542 -33.352,45.571c-18.119,5.459 -31.585,-27.31 -33.584,-28.039c-9.515,-3.468 -11.69,0.41 -17.363,-8.163c-11.196,-16.921 -3.17,29.712 -2.73,32.265c1.016,5.903 -4.482,14.752 -15.767,2.966c-38.752,-40.474 -40.571,-113.962 -42.719,-123.817c-4.332,-19.871 -28.375,-130.16 -11.277,-253.967c31.831,-230.487 73.066,-274.833 76.969,-300.312c0.813,-5.305 1.07,-6.988 -46.183,-48.666c-11.632,-10.26 -46.274,-22.907 24.76,-94.125c14.551,-14.588 -46.312,-50.156 -84.385,-92.074c-87.375,-96.2 -99.545,-89.265 -99.238,-106.684c0.117,-6.614 27.061,-39.974 32.25,-43.835c27.445,-20.424 -1.457,-28.93 -12.612,-64.818c-106.931,-344.039 -61.624,-437.27 -78.024,-595.266c-8.871,-85.458 -31.788,-75.678 -87.841,-152.85c-230.673,-317.585 -60.982,-548.194 -12.462,-607.345c88.536,-107.935 147.609,-127.967 168.591,-144.277c68.974,-53.616 232.169,-65.962 260.943,-31.96c27.398,32.375 -86.639,35.821 -139.715,78.17c-23.045,18.388 47.337,-7.225 69.613,25.288c29.32,42.793 -80.099,30.888 -172.539,183.69c-128.686,212.717 -49.268,330.397 -46.584,336.204c6.352,13.743 56.135,121.459 145.02,121.589c72.999,0.107 72.609,-3.471 145.836,-4.609c410.29,-6.374 451.385,10.494 600.026,4.876c28.097,-1.062 113.919,1.691 189.614,-114.456c131.328,-201.509 7.277,-397.962 -53.144,-443.226c-7.423,-5.561 -168.673,-67.371 -19.319,-83.352c11.103,-1.188 5.126,-20.601 -129.445,-52.21c-63.949,-15.021 -15.043,-39.645 -12.594,-40.344c147.496,-42.094 292.01,17.077 324.226,46.156c42.457,38.323 112.285,79.96 153.16,216.439c98.314,328.26 -101.257,496.537 -172.989,574.829c-39.627,43.251 3.678,333.059 -63.869,599.461c-34.752,137.061 -66.28,170.488 -103.649,208.071c-74.41,74.834 -227.665,84.209 -234.498,90.708c-5.612,5.338 35.854,46.399 60.063,88.895c142.021,249.3 142.595,362.65 151.596,491.602Z" style="fill:#101116;"/><path d="M1321.445,137.327c-89.825,-54.878 -220.635,-47.168 -123.524,-60.223c2.7,-0.363 163.541,-40.763 302.732,72.568c20.53,16.715 111.046,123.33 131.459,218.878c63.859,298.921 -103.375,436.476 -160.125,495.126c-24.881,25.714 -41.06,23.573 -43.444,167.593c-1.69,102.148 -6.311,101.623 -7.321,204.103c-0.203,20.586 -15.364,153.202 -16.884,166.504c-1.344,11.754 -22.994,121.6 -47.265,179.718c-72.252,173.011 -210.851,181.121 -250.371,188.972c-203.013,40.33 -545.531,26.26 -657.263,-66.22c-138.047,-114.26 -143.32,-338.295 -165.033,-568.84c-12.335,-130.97 21.834,-180.836 -33.449,-244.972c-69.167,-80.244 -181.79,-178.316 -168.914,-413.399c10.263,-187.383 137.61,-289.133 159.189,-306.374c48.285,-38.58 147.147,-133.439 319.498,-115.508c53.174,5.532 -52.079,12.448 -95.152,40.135c-26.615,17.108 -54.111,33.864 -36.719,55.263c11.619,14.295 84.076,2.259 71.305,20.883c-2.16,3.15 -4.089,0.526 -40.446,25.36c-43.325,29.593 -45.582,26.525 -81.916,64.196c-74.231,76.964 -102.69,155.285 -108.207,170.467c-25.12,69.131 -25.4,195.104 -5.661,229.194c35.953,62.094 73.953,161.212 204.817,162.21c145.261,1.107 287.311,-22.756 595.874,-5.098c162.202,9.282 250.369,4.36 340.492,-137.364c44.458,-69.914 90.632,-243.668 -0.462,-373.173c-90.829,-129.13 -133.935,-107.113 -135.357,-117.838c-3.472,-26.198 93.298,7.678 64.277,-40.323c-0.701,-1.16 -0.898,-0.877 -12.129,-11.835Z" style="fill:#ececec;"/><path d="M968.282,1835.78c-7.075,16.88 8.81,23.87 17.739,32.059c25.15,23.067 23.851,23.738 47.146,49.157c40.363,44.041 51.163,56.752 47.492,43.454c-10.007,-36.263 -93.558,-105.661 -102.99,-113.495c0,0 0.049,-7.996 0.054,-8.691c78.025,52.055 106.358,97.179 183.45,191.809c7.278,6.529 8.63,3.76 15.707,-2.892c8.643,20.633 14.09,20.888 6.302,42.12c-6.522,17.778 48.229,48.448 66.49,232.739c0.025,0.248 5.294,30.563 5.756,33.22c-4.479,5.118 -2.447,12.74 -6.436,7.355c-2.039,-2.753 0.938,-3.781 -11.98,-41.115c-21.091,-60.956 -88.581,-133.844 -90.41,-134.934c-21.248,-12.666 -3.279,10.463 32.538,67.457c114.899,182.836 60.736,215.713 104.996,347.407c2.453,7.297 -10.202,6.012 -12.115,0.327c-19.298,-57.351 -7.966,-98.626 -155.117,-248.988c-83.581,-80.628 -140.813,-115.351 -198.765,-201.179c4.287,-4.898 2.69,-5.969 8.095,-9.248c14.408,-8.743 -23.947,-68.622 -26.897,-75.129c-29.014,-63.988 -27.388,-67.158 -24.588,-72.615c7.736,-15.081 -15.283,-15.556 -14.221,-5.841c1.067,9.765 -2.96,7.81 -8.93,12.394c-7.843,6.022 -9.101,10.484 0.613,12.888c28.688,7.1 8.583,28.851 16.635,49.388l3.051,1.724c-8.626,10.196 -6.84,12.408 12.427,53.314c27.306,57.974 29.431,56.776 70.674,100.617c32.763,34.826 27.359,39.952 94.284,97.289c74.104,63.488 154.061,131.379 204.981,277.335c1.782,5.109 11.814,103.944 -2.626,78.945c-10.047,-17.394 -13.915,-15.157 -19.282,-34.561c-1.396,-5.047 -10.874,-7.656 -11.835,4.999c-3.151,41.505 8.839,78.612 2.437,79.162c-2.609,0.224 -29.387,-10.922 -56.338,-63.741c-10.718,-21.005 -7.69,-21.866 -15.259,-44.213c-1.048,0.446 -1.256,-2.969 -2.303,-2.523c-1.461,0.623 -7.397,-0.08 -5.391,47.722c-2.195,-0.305 -4.389,-0.609 -6.584,-0.914c-6.02,-18.841 -52.367,-70.012 -91.531,-113.197c-57.76,-63.691 -63.37,-59.573 -147.222,-198.569c-16.013,-26.543 -28.25,-77.832 -35.889,-61.702c-6.932,14.637 44.235,98.049 19.858,76.839c-6.64,-5.777 -79.079,-104.623 -97.306,-173.059c-17.32,-65.031 -20.435,-63.756 -31.874,-129.499c-18.217,-104.691 -11.904,-150.72 -16.866,-170.745c-0.308,-1.245 -4.279,-48.294 -1.469,-54.457c0.839,-1.841 22.958,-12.54 25.888,17.046c2.441,24.638 12.565,126.842 92.715,295.274c15.896,33.405 97.267,131.67 53.066,46.286c-0.09,-0.174 -74.516,-109.401 -101.39,-220.438c-23.014,-95.089 -38.525,-140.052 -19.609,-139.222c69.565,3.053 69.705,5.274 70.042,6.194c33.643,91.771 18.259,106.541 197.793,277.373c1.999,1.902 62.833,59.788 31.532,13.965c-22.404,-32.798 -181.143,-157.057 -213.191,-287.61c-1.149,-4.679 -0.489,-14.522 59.623,-8.481c7.463,0.75 33.428,18.997 37.032,21.201Z" style="fill:#2e3543;"/><path d="M724.637,1452.026c-0.045,2.07 10.67,113.876 -98.166,161.169c-182.922,79.487 -300.897,-175.684 -181.221,-292.907c68.87,-67.459 255.432,-99.34 279.387,131.738Z" style="fill:#010101;"/><path d="M991.312,1406.488c27.159,-150.288 158.338,-163.219 234.776,-127.322c120.765,56.712 81.776,211.204 76.148,227.133c-61.729,174.684 -331.93,134.007 -310.924,-99.811Z" style="fill:#010101;"/><path d="M782.345,2223.981c4.57,-0.08 5.198,-0.602 6.362,3.704c6.456,23.873 44.99,81.084 49.494,87.77c16.283,24.175 3.534,31.22 0.967,40.638c-26.432,96.998 -124.418,202.667 -165.397,238.574c-22.039,19.312 -59.016,87.745 -58.609,53.223c0.559,-47.506 20.3,-59.163 20.044,-66.578c-0.473,-13.69 -13.539,6.204 -35.272,34.778c-27.021,35.527 -39.255,75.746 -43.407,56.698c-12.4,-56.901 25.046,-130.477 30.27,-140.74c32.081,-63.033 160.821,-183.356 195.548,-308.066Z" style="fill:#2e3442;"/><path d="M389.826,1676.965c14.674,16.567 13.996,16.453 30.054,32.136c21.554,21.05 17.924,24.234 20.458,24.583c26.39,3.637 62.886,32.087 87.409,41.448c18.993,7.25 18.173,8.522 57.138,44.2c7.313,6.696 -0.845,12.474 -0.807,16.193c0.269,26.578 34.878,-40.715 56.166,-35.357c10.212,2.571 -3.413,25.207 -4.546,27.09c-97.39,161.803 -91.867,164.836 -100.558,178.753c-1.125,1.801 -13.532,6.079 -9.781,-24.682c0.984,-1.001 -1.12,-3.208 -0.135,-4.209c1.469,-1.493 4.196,-0.758 6.025,-1.777c1.609,-0.897 9.197,-10.102 9.158,-10.81c-0.13,-2.348 -4.219,-2.379 -5.612,-4.273c-3.968,-5.397 12.222,-20.594 -0.131,-50.573c-10.551,4.389 -10.526,4.314 -11.391,4.832c0.63,-14.7 2.467,-14.006 11.792,-25.237c14.142,-17.032 -87.511,-72.428 -87.741,-103.952c-0.457,-16.582 -0.083,-26.834 0.002,-29.166c0.038,-1.053 -9.732,-21.041 -12.42,4.394c-2.023,-2.594 -18.709,-23.991 -26.552,-31.406c-5.642,-5.333 -8.294,-2.247 -11.739,-9.423c-3.758,-7.828 -15.275,-10.019 -16.149,-13.067c-1.241,-4.323 1.125,-4.255 -0.687,-8.744c-1.269,-3.147 -3.262,-1.043 -4.611,-4.388c5.434,-9.916 6.146,-8.959 14.658,-16.563Z" style="fill:#696974;"/><path d="M654.824,1967.26c61.375,-82.426 52.805,-95.691 60.338,-91.237c3.328,1.968 1.715,2.83 1.475,25.985c-0.29,27.986 4.955,86.504 5.195,87.779c8.641,45.921 -34.46,94.354 -127.848,266.552c-0.624,-1.188 2.305,-2.469 1.681,-3.656c-6.726,-12.81 -20.615,-18.356 -6.082,-19.929c0.683,-0.074 0.504,-0.228 5.719,-9.836c8.093,-14.909 9.907,-13.675 13.806,-29.82c6.151,-25.471 26.186,-62.552 26.959,-65.912c2.561,-11.122 5.337,-9.721 8.617,-20.535c17.802,-58.701 30.75,-57.396 24.548,-63.105c-6.299,-5.799 -18.218,-7.139 -54.319,92.214c-6.894,18.974 -14.633,23.799 -16.677,25.074c-4.508,2.81 -3.414,3.537 -1.202,8.074c5.328,10.933 -4.872,13.153 -5.065,13.675c-5.043,-5.78 -11.574,-7.504 -8.215,-26.877c0.311,-1.793 1.759,-0.636 10.644,-20.103c1.083,-2.373 6.79,-5.092 7.455,-5.408c12.897,-6.144 -0.951,-19.537 11.844,-36.847c24.64,-33.334 27.437,-37.96 28.491,-70.589c0.327,-10.125 23.688,-34.414 18.62,-45.826c-1.539,-3.465 -4.446,-6.207 -5.984,-9.672Z" style="fill:#202433;"/><path d="M1176.881,2027.181c-7.077,6.652 -8.429,9.421 -15.707,2.892c0.757,-1.32 8.325,-1.031 0.123,-15.75c-53.485,-95.985 -75.062,-102.547 -151.756,-174.115c-3.188,-2.975 -32.812,-17.254 -35.716,-18.654c-0.943,-0.454 -17.475,-8.423 -8.47,-9.968c69.01,-11.838 77.737,-1.412 81.949,3.621c73.017,87.232 121.369,193.873 129.576,211.975Z" style="fill:#343945;"/><path d="M633.426,1867.228c10.372,-19.099 10.215,-18.571 21.969,-36.462c15.569,-23.698 17.812,-23.901 46.623,-23.36c18.083,0.34 21.41,28.282 0.75,57.671c-50.335,71.603 -65.956,104.615 -95.182,142.048c-1.082,-2.394 -4.975,-2.648 -6.057,-5.042c-0.958,-2.121 8.916,-12.394 10.213,-20.277c2.633,-16.002 21.391,-44.493 24.033,-50.405c20.339,-45.518 21.249,-45.947 19.372,-49.786c-2.808,-5.742 -4.315,-2.084 -7.231,-2.074c-6.612,0.024 -3.045,-6.676 -6.361,-8.542c-2.603,-1.465 -5.526,-2.307 -8.129,-3.772Z" style="fill:#1f2230;"/><path d="M868.847,2043.426c-8.052,-20.538 12.053,-42.288 -16.635,-49.388c-9.714,-2.404 -8.457,-6.865 -0.613,-12.888c5.97,-4.584 9.997,-2.629 8.93,-12.394c-1.062,-9.715 21.957,-9.24 14.221,5.841c-2.799,5.457 -4.426,8.627 24.588,72.615c2.951,6.507 41.306,66.386 26.897,75.129c-5.405,3.28 -3.808,4.351 -8.095,9.248c-41.648,-66.489 -34.365,-73.316 -46.243,-86.439l-3.051,-1.724Z" style="fill:#1e2435;"/><path d="M389.826,1676.965c-8.512,7.604 -9.224,6.647 -14.658,16.563c-0.593,1.529 -1.609,2.87 -2.202,4.399c-5.281,13.603 1.905,12.617 2.515,16.656l7.522,2.677c18.227,22.715 24.372,17.172 35.625,38.99c0.857,1.661 2.922,2.336 4.289,3.609c4.22,3.931 4.24,3.798 4.167,4.269c-0.754,4.818 -5.098,1.682 -5.853,6.504c-66.266,-56.143 -82.944,-68.568 -68.094,-88.632c14.586,-19.708 21.671,-24.426 36.69,-5.037Z" style="fill:#a8a6ab;"/><path d="M968.282,1835.78c3.147,0.828 6.295,1.656 9.442,2.484c-0.004,0.695 -0.054,8.691 -0.054,8.691c9.431,7.834 92.982,77.232 102.99,113.495c3.67,13.299 -7.129,0.587 -47.492,-43.454c-23.296,-25.419 -21.996,-26.09 -47.146,-49.157c-8.929,-8.189 -24.814,-15.18 -17.739,-32.059Z" style="fill:#03060d;"/><path d="M1292.29,2535.822c-4.503,-21.405 -14.378,-50.258 -2.248,-47.505c1.566,0.355 29.712,39.896 32.22,43.42c5.054,7.1 2.956,18.053 5.138,37.035c-28.645,-28.197 -24.501,-32.289 -27.807,-33.356c-2.321,-0.749 -4.983,1.154 -7.304,0.405Z" style="fill:#a2a1a6;"/><path d="M1082.514,2633.488c-19.945,-25.654 -34.712,-18.367 -32.303,-44.176c0.13,-1.39 2.08,-22.284 9.072,-14.906c39.403,41.577 36.029,47.825 33.668,52.197c-3.426,6.344 -3.478,7.183 -10.437,6.885Z" style="fill:#282b38;"/><path d="M1361.093,2580.673c16.416,23.274 28.55,35.04 20.151,37.767c-0.018,0.006 -43.644,-21.143 -43.673,-32.759c-0.059,-23.844 0.329,-24.123 1.98,-25.306c6.436,-4.613 6.009,1.242 21.543,20.297Z" style="fill:#9f9ea3;"/><path d="M511.281,1948.161c-17.203,20.476 -23.429,23.646 -25.998,24.954c-21.043,-22.542 35.21,-81.188 25.998,-24.954Z" style="fill:#aaa9af;"/><path d="M375.168,1693.528c1.349,3.345 3.342,1.242 4.611,4.388c1.811,4.49 -0.554,4.422 0.687,8.744c0.875,3.047 12.391,5.238 16.149,13.067c3.445,7.176 6.097,4.09 11.739,9.423c7.844,7.414 24.529,28.811 26.552,31.406c1.92,15.478 1.737,15.74 0.968,16.85c-5.992,8.646 -6.856,0.496 -14.644,-6.774c0.755,-4.823 5.099,-1.686 5.853,-6.504c0.074,-0.472 0.053,-0.338 -4.167,-4.269c-1.367,-1.274 -3.433,-1.949 -4.289,-3.609c-11.253,-21.818 -17.398,-16.275 -35.625,-38.99c-2.507,-0.892 -5.014,-1.784 -7.522,-2.677c-0.61,-4.039 -7.796,-3.054 -2.515,-16.656c0.593,-1.529 1.609,-2.87 2.202,-4.399Z" style="fill:#85848d;"/><path d="M534.665,1909.686c12.353,29.979 -3.837,45.176 0.131,50.573c1.393,1.894 5.481,1.926 5.612,4.273c0.039,0.708 -7.549,9.914 -9.158,10.81c-1.829,1.019 -4.557,0.285 -6.025,1.777c-0.984,1.001 1.12,3.208 0.135,4.209c-3.38,-33.525 3.14,-33.635 -2.086,-66.81c0.866,-0.518 0.84,-0.443 11.391,-4.832Z" style="fill:#6f6f7a;"/><path d="M1292.29,2535.822c2.321,0.749 4.983,-1.154 7.304,-0.405c3.306,1.067 -0.838,5.159 27.807,33.356c-2.479,18.197 -11.293,15.879 -24.284,3.083c-7.575,-7.462 -9.569,-29.824 -10.827,-36.033Z" style="fill:#7b7a85;"/><path d="M511.281,1948.161c-1.144,17.564 7.037,29.615 -17.213,32.464l-8.785,-7.511c2.569,-1.308 8.795,-4.478 25.998,-24.954Z" style="fill:#7a7981;"/><path d="M590.107,1801.396c-3.775,-6.788 -8.502,-10.371 -0.427,-11.263c9.031,-0.997 17.463,13.815 0.427,11.263Z" style="fill:#b3b4b1;"/><path d="M444.538,867.708c28.443,2.662 8.113,14.388 6.886,14.845c-1.227,0.457 -4.344,1.617 -6.886,-14.845Z" style="fill:#f1f1f1;"/><path d="M851.225,2031.292c-7.893,-0.039 -7.911,0.256 -8.525,-0.042c-0.711,-0.345 0.235,-0.695 0.787,-9.846c0.406,-6.741 12.066,-2.674 11.712,1.526c-0.259,3.075 -3.715,5.286 -3.974,8.361Z" style="fill:#1a1d2b;"/><path d="M284.876,757.95c-3.965,6.134 -5.115,4.522 -11.698,2.259c-51.242,-17.612 10.794,-2.56 11.698,-2.259Z" style="fill:#ececec;"/><path d="M1551.295,751.929c-0.45,1.025 -11.345,25.853 -11.189,8.409c0.079,-8.877 2.101,-9.698 11.189,-8.409Z" style="fill:#e9e9e9;"/><path d="M501.009,1990.655c8.869,-5.13 8.697,-5.616 9.579,-5.54c3.609,0.308 5.115,16.623 -9.579,5.54Z" style="fill:#323335;"/><path d="M524.778,2589.143c-0.392,6.755 6.415,10.723 -0.621,10.704c-3.223,-0.009 -7.659,-2.917 -7.473,-6.134c0.179,-3.093 7.914,-1.477 8.094,-4.57Z" style="fill:#3c4250;"/><path d="M1137.082,2638.581c2.195,0.305 4.389,0.609 6.584,0.914c-6.432,8.164 -7.429,20.551 -8.249,10.469c-0.075,-0.917 0.123,-0.843 1.665,-11.383Z" style="fill:#0b0b0c;"/><path d="M551.735,1877.093c-6.327,-5.565 -16.391,-8.129 -8.004,-7.04c0.846,0.11 0.593,0.521 8.004,7.04Z" style="fill:#86848e;"/></g></svg>